PathFileType	4	(X/Y/Z)	..\data\2014025\dynamic\2014025_C4_04.trc
DataRate	CameraRate	NumFrames	NumMarkers	Units	OrigDataRate	OrigDataStartFrame	OrigNumFrames
100.000000	100.000000	4	52	mm	100.000000	19	152
Frame#	Time	L_IAS			L_IPS			R_IPS			R_IAS			L_FTC			L_FLE			L_FME			L_FAX			L_TTC			L_FAL			L_TAM			L_FCC			L_FM1			L_FM2			L_FM5			R_FTC			R_FLE			R_FME			R_FAX			R_TTC			R_FAL			R_TAM			R_FCC			R_FM1			R_FM2			R_FM5			CV7			TV10			SXS			SJN			L_SIA			L_SRS			L_SAA			L_SAE			L_HLE			L_HME			L_UOA			L_RSP			L_UHE			L_HM2			L_HM5			R_SIA			R_SRS			R_SAA			R_SAE			R_HLE			R_HME			R_UOA			R_RSP			R_UHE			R_HM2			R_HM5			
		X1	Y1	Z1	X2	Y2	Z2	X3	Y3	Z3	X4	Y4	Z4	X5	Y5	Z5	X6	Y6	Z6	X7	Y7	Z7	X8	Y8	Z8	X9	Y9	Z9	X10	Y10	Z10	X11	Y11	Z11	X12	Y12	Z12	X13	Y13	Z13	X14	Y14	Z14	X15	Y15	Z15	X16	Y16	Z16	X17	Y17	Z17	X18	Y18	Z18	X19	Y19	Z19	X20	Y20	Z20	X21	Y21	Z21	X22	Y22	Z22	X23	Y23	Z23	X24	Y24	Z24	X25	Y25	Z25	X26	Y26	Z26	X27	Y27	Z27	X28	Y28	Z28	X29	Y29	Z29	X30	Y30	Z30	X31	Y31	Z31	X32	Y32	Z32	X33	Y33	Z33	X34	Y34	Z34	X35	Y35	Z35	X36	Y36	Z36	X37	Y37	Z37	X38	Y38	Z38	X39	Y39	Z39	X40	Y40	Z40	X41	Y41	Z41	X42	Y42	Z42	X43	Y43	Z43	X44	Y44	Z44	X45	Y45	Z45	X46	Y46	Z46	X47	Y47	Z47	X48	Y48	Z48	X49	Y49	Z49	X50	Y50	Z50	X51	Y51	Z51	X52	Y52	Z52	

20	0.19	53.24972152709962	847.1046142578127	-402.6436462402345	-167.4704742431641	911.9399414062502	-320.7834167480469	-157.5022583007813	925.0274658203127	-204.4194030761719	81.57882690429689	893.083435058594	-141.6194000244141	-67.25557708740236	786.6934814453127	-476.6479492187501	-53.36460876464845	421.2099609375001	-467.7098999023439	-19.42578506469727	380.5377807617188	-316.0145263671876	-98.61407470703128	390.5201110839845	-467.253387451172	-69.0399856567383	319.2141113281251	-427.1734313964845	-381.8269653320313	199.9070587158204	-401.204315185547	-351.0435180664063	179.7403869628907	-321.2977905273438	-428.8619995117189	206.7469024658204	-340.0422973632813	-338.6479187011719	40.60419464111329	-333.6434936523438	-341.2090454101563	58.38014602661134	-391.7542724609376	-386.2855834960939	79.11605072021486	-423.2093200683595	14.92710494995118	826.6966552734377	-48.23485946655275	135.5064392089844	464.655975341797	-123.8262786865235	137.4361267089844	471.2390441894532	-288.2922363281251	114.3758010864258	394.6856994628907	-123.5277633666992	189.0319366455078	391.148162841797	-192.4723358154297	90.52046966552736	70.24146270751955	-187.1375885009766	115.3063278198242	79.2047805786133	-273.9158020019532	51.36999511718751	20.30645751953125	-248.6238403320313	240.0127410888672	15.79686069488526	-253.0151367187501	237.6918640136719	39.69697189331055	-197.4823150634766	190.0315246582032	20.30460739135743	-150.318603515625	-77.39992523193361	1380.998657226563	-274.7409362792969	-152.6071472167969	1159.7158203125	-282.6168518066407	99.41630554199222	1154.156494140625	-272.7412414550782	38.52594757080079	1299.021484375	-270.4070739746094	-151.7983856201172	1204.9619140625	-388.9918518066407	-112.1949996948242	1337.126098632813	-367.2734985351563	-60.53472900390626	1340.601196289063	-442.3883666992189	-9.176679611206056	1345.494140625	-457.1677856445314	34.21431732177735	1039.0751953125	-547.1942749023439	7.715205669403078	1005.1474609375	-462.9013061523439	8.776769638061525	1005.463317871094	-510.6377258300782	206.3436889648438	862.2544555664065	-511.7313537597657	158.7887268066407	831.8903808593752	-567.3427124023439	266.6829528808594	813.2705688476565	-526.8866577148439	197.5158233642579	773.1710205078127	-576.8871459960939	-160.3894348144532	1185.4482421875	-181.7523345947266	-115.3656845092774	1318.25146484375	-186.8758850097657	-71.9751434326172	1323.113037109375	-118.1618194580078	-22.40867996215821	1324.06982421875	-97.23257446289065	-106.3911285400391	1020.922973632813	-17.01082420349121	-103.7297058105469	996.9757080078127	-104.4723205566407	-120.4886932373047	995.9613037109377	-54.71551895141603	-51.69979858398439	775.7549438476565	18.15462303161621	-110.3486709594727	788.471618652344	49.01705169677736	-68.34771728515626	695.4777832031251	34.15059280395509	-151.4817504882813	746.9213256835939	44.65986251831055	
21	0.2	66.87811279296876	849.4063110351565	-402.216033935547	-153.6649932861328	914.4167480468752	-318.7751770019532	-143.1614837646485	928.2666015625002	-202.570297241211	95.5855178833008	894.800964355469	-140.8572387695313	-52.3828811645508	787.8985595703127	-475.2256469726564	-25.82754516601563	423.081512451172	-466.6617431640626	8.52978038787842	383.2401428222657	-314.3450622558594	-70.49359130859376	392.3827209472657	-466.1927490234376	-40.26887512207032	321.4824829101563	-425.7759094238282	-353.6134338378907	203.3370819091797	-399.4590759277345	-322.7810058593751	182.6191101074219	-319.4397277832032	-401.2095031738282	208.735336303711	-338.1958312988282	-308.3068237304688	43.7495231628418	-334.4064941406251	-311.0582580566407	62.66048049926759	-392.2286987304689	-356.3562927246094	83.70770263671876	-423.2337036132814	28.31942367553712	828.519226074219	-47.15441894531251	141.5915679931641	464.363006591797	-123.0077667236328	143.1766967773438	470.6029052734376	-287.2695007324219	118.5582962036133	394.2385864257814	-122.8871078491211	193.5267181396485	389.8313903808595	-191.3978576660157	90.61026763916017	70.31557464599611	-186.9353790283203	115.5679397583008	79.35446929931642	-273.5629882812501	51.53435134887697	20.35979843139649	-248.6381530761719	239.9577026367188	16.37462806701661	-252.8494415283204	237.5633239746094	40.00630187988282	-197.1555938720704	190.0399932861328	20.49664306640625	-149.9666900634766	-63.27449798583986	1383.875732421875	-273.9988708496094	-138.4250793457032	1162.481567382813	-280.8009948730469	113.2085418701172	1156.761840820313	-272.8331909179688	52.50349044799806	1301.910766601563	-270.3424682617188	-138.6765747070313	1207.389038085938	-387.0761718750001	-98.91560363769534	1339.700805664063	-366.1066589355469	-47.88803100585938	1342.917724609375	-441.6532287597657	3.169524431228639	1347.69482421875	-456.9647216796876	43.75827789306641	1040.257080078125	-545.6559448242189	18.16382026672364	1007.140197753906	-460.7266235351564	18.79757308959961	1007.10205078125	-508.3358154296876	214.9925994873047	862.2236328125002	-511.4526977539064	166.4095001220703	832.000671386719	-566.2507934570314	274.7799682617188	812.8013305664065	-527.3099365234376	204.5206451416016	772.8941650390627	-575.9541015625001	-145.9397430419922	1188.573608398438	-179.7412719726563	-100.8202056884766	1321.384765625	-185.6076202392578	-56.883113861084	1326.251098632813	-117.2210693359375	-7.021883964538576	1327.262939453125	-96.73626708984378	-86.17432403564455	1022.928833007813	-14.95313453674317	-84.9244842529297	998.8654785156252	-102.4979476928711	-100.7147674560547	997.650085449219	-52.48170852661134	-27.16365623474122	778.457214355469	18.57829284667969	-85.16928863525392	790.4097290039065	50.82287597656251	-41.92131042480469	698.0996093750001	35.18310546875001	-125.7429885864258	748.0699462890626	47.39999771118165	
22	0.21	80.21704864501955	852.218444824219	-402.1861877441407	-139.9548034667969	917.5449829101565	-316.6658020019532	-128.9435577392578	931.7667236328127	-200.6771087646485	109.3963394165039	896.5673828125002	-139.9765777587891	-37.84029769897462	789.9026489257815	-473.8088989257814	1.689600229263306	425.7661743164064	-465.2178039550782	36.05401611328126	387.0819091796876	-312.1465759277344	-42.37630081176759	394.9237365722657	-464.7506408691407	-11.23528003692627	324.5532836914063	-423.921844482422	-324.3426208496094	205.5546569824219	-397.711151123047	-293.5369262695313	184.7218627929688	-317.4661865234376	-372.7337341308594	209.1794128417969	-336.4505310058594	-275.7210083007813	46.56377792358399	-334.4311828613282	-278.6054077148438	66.46822357177736	-391.9426574707032	-324.1729736328126	87.06838226318361	-422.760711669922	41.27154922485352	830.147644042969	-46.25047302246094	146.9667205810547	464.1688842773439	-122.3408966064453	148.0530090332032	469.9686889648439	-286.3634948730469	122.0333251953125	393.8376464843751	-122.3763504028321	197.2687988281251	388.5946350097657	-190.5135498046875	90.61455535888673	70.33352661132814	-186.7146606445313	115.7530212402344	79.47763061523439	-273.2351379394532	51.61647415161134	20.36303901672364	-248.6532897949219	239.8749389648438	16.96781349182129	-252.6800994873047	237.3502502441407	40.27310943603516	-196.8456268310547	189.9907836914063	20.56967735290528	-149.7073669433594	-49.35962295532228	1386.984130859375	-273.4186096191407	-124.4078979492188	1165.47607421875	-279.0317382812501	126.8590469360352	1159.630126953125	-273.0918273925782	66.25582885742189	1305.052001953125	-270.4386901855469	-125.721908569336	1209.995849609375	-385.1849365234376	-85.83401489257814	1342.462524414063	-365.0645751953126	-35.46354293823243	1345.45703125	-441.0215759277345	15.29242038726807	1350.157348632813	-456.9237060546876	52.76894378662111	1041.615966796875	-544.1016845703126	28.20613479614259	1009.482849121094	-458.4716186523439	28.32251930236817	1008.968505859375	-505.9878234863282	222.972885131836	862.285583496094	-511.2339782714845	173.3401031494141	832.3012695312502	-565.2206420898439	282.1123352050782	812.2337036132815	-527.7340698242189	210.7047882080079	772.7406005859377	-575.0839233398439	-131.7337799072266	1192.017211914063	-177.8070831298828	-86.50328063964845	1324.824829101563	-184.507553100586	-42.03947067260743	1329.746704101563	-116.4761505126953	8.084603309631349	1330.81298828125	-96.42434692382815	-65.95025634765626	1025.30224609375	-13.00800228118897	-66.12342834472658	1001.0751953125	-100.5982513427735	-80.8706741333008	999.6210937500002	-50.31044387817384	-2.068784475326539	781.7537231445315	18.85167503356934	-59.38978576660158	792.7683105468752	52.47945404052736	-14.57402896881104	701.3922119140626	36.21067047119141	-99.19647216796878	749.5196533203126	50.11513137817384	
23	0.22	93.33726501464845	855.5305175781252	-402.4591369628907	-126.3025131225586	921.226501464844	-314.5296630859376	-114.8415985107422	935.4770507812502	-198.7995300292969	123.0287475585938	898.4191894531252	-138.9759063720703	-23.57381629943848	792.6219482421877	-472.4239807128907	29.08210945129395	429.2039794921876	-463.404998779297	63.13681411743165	391.9437561035157	-309.5068969726563	-14.33900165557862	398.0643005371095	-462.9636535644532	17.9572982788086	328.3562622070313	-421.6620178222657	-294.1302795410157	206.4758911132813	-395.9885253906251	-263.4266662597657	185.9656524658203	-315.4202575683594	-343.4956970214844	208.0856628417969	-334.8411865234376	-241.1958923339844	48.90248107910158	-333.7214965820313	-244.1890411376954	69.61404418945314	-390.9183349609376	-290.0490112304688	89.09170532226564	-421.7947387695314	53.84055328369142	831.6590576171877	-45.5009880065918	151.6888580322266	464.0950622558595	-121.7891540527344	152.1723327636719	469.3934326171876	-285.5603637695313	124.9121780395508	393.5412902832032	-121.9585189819336	200.3537902832032	387.477752685547	-189.7905731201172	90.56235504150392	70.31617736816408	-186.4577941894532	115.8715438842774	79.59300994873048	-272.9230651855469	51.62150192260744	20.35029792785645	-248.6417541503907	239.7675933837891	17.52079391479493	-252.5129089355469	237.0909423828126	40.45782089233399	-196.5561828613282	189.9048767089844	20.50923919677735	-149.5160064697266	-35.64038467407227	1390.271118164063	-272.9778747558594	-110.5259246826172	1168.65185546875	-277.3040771484376	140.4126739501953	1162.751220703125	-273.4953002929688	79.81314086914064	1308.406860351563	-270.6754760742188	-112.8930130004883	1212.758666992188	-383.3162231445313	-72.91392517089845	1345.373413085938	-364.1266479492188	-23.21432685852051	1348.201904296875	-440.4630432128907	27.23831939697266	1352.866455078125	-456.9998474121095	61.28796386718751	1043.177001953125	-542.5386352539064	37.8734474182129	1012.182312011719	-456.1681213378907	37.38122558593751	1011.073669433594	-503.6247863769532	230.3227233886719	862.4620361328127	-511.1009216308595	179.6234588623047	832.8149414062502	-564.2730712890626	288.7030944824219	811.5693359375002	-528.1411132812501	216.1006317138672	772.7226562500002	-574.2702636718751	-117.7003555297852	1195.719482421875	-175.9334106445313	-72.38140869140626	1328.5166015625	-183.552719116211	-27.40874290466309	1333.563598632813	-115.9070434570313	22.94422912597657	1334.688354492188	-96.27856445312503	-45.75186920166016	1028.049560546875	-11.18620681762695	-47.3608512878418	1003.637329101563	-98.79040527343753	-60.98887634277345	1001.87939453125	-48.21747970581056	23.52469825744629	785.6588134765627	18.94241905212403	-33.07639312744141	795.568786621094	53.93415832519533	13.64248180389405	705.4126586914064	37.17364883422852	-71.88089752197267	751.2988891601564	52.73835754394533	
